<svg
            xmlns="http://www.w3.org/2000/svg"
            width="308"
            height="286"
            viewBox="0 0 374 348"
            fill="none"
            aria-hidden="true"
            style="
              width: 308px;
              height: 286px;
              display: block;
              transform: scale(1, 1);
              transition-property: none;
            "
          >
            <mask
              id="mask0_1294_5770662b4a1dce8032"
              style="mask-type: alpha"
              maskUnits="userSpaceOnUse"
              x="-64"
              y="-42"
              width="506"
              height="433"
            >
              <rect
                x="442"
                y="391"
                width="506"
                height="433"
                transform="rotate(-180 442 391)"
                fill="url(#paint0_linear_1294_5770662b4a1dce8032)"
                style="transition-property: none"
              ></rect>
            </mask>
            <g mask="url(#mask0_1294_5770662b4a1dce8032)">
              <path
                d="M352 312.356L352 281.258M352 250.16L352 219.168M352 188.072L352 156.974M352 125.877L352 94.8849M352 63.7852L352 32.6874M333.581 344L333.581 312.902M333.581 281.908L333.581 250.81M333.581 219.713L333.581 188.721M333.581 157.625L333.581 126.527M333.581 95.4297L333.581 64.4376M333.581 33.3379L333.581 2.24011M315.155 312.356L315.155 281.258M315.155 250.16L315.155 219.168M315.155 188.072L315.155 156.974M315.155 125.877L315.155 94.8849M315.155 63.7852L315.155 32.6874M296.737 344L296.737 312.902M296.738 281.912L296.738 250.814M296.738 219.717L296.738 188.725M296.738 157.629L296.738 126.531M296.738 95.4326L296.738 64.4406M296.738 33.3418L296.738 2.24401M278.318 312.36L278.318 281.262M278.318 250.165L278.318 219.173M278.318 188.077L278.318 156.979M278.318 125.881L278.318 94.8888M278.318 63.79L278.318 32.6923M259.899 344L259.899 312.902M259.899 281.912L259.899 250.814M259.899 219.717L259.899 188.725M259.899 157.625L259.899 126.527M259.899 95.4297L259.899 64.4376M259.899 33.3418L259.899 2.24401M241.474 312.356L241.474 281.258M241.473 250.16L241.473 219.168M241.473 188.072L241.473 156.974M241.473 125.877L241.473 94.8849M241.473 63.7851L241.473 32.6874M223.056 344L223.056 312.902M223.056 281.908L223.056 250.81M223.056 219.713L223.056 188.721M223.056 157.625L223.056 126.527M223.056 95.4297L223.056 64.4376M223.056 33.3379L223.056 2.2401M204.629 312.356L204.629 281.258M204.63 250.16L204.63 219.168M204.63 188.072L204.63 156.974M204.63 125.877L204.63 94.8849M204.63 63.7851L204.63 32.6874M186.21 344L186.21 312.902M186.211 281.912L186.211 250.814M186.211 219.717L186.211 188.725M186.211 157.629L186.211 126.531M186.211 95.4326L186.211 64.4406M186.211 33.3418L186.211 2.244M167.79 313.876L167.79 282.778M167.79 251.68L167.79 220.688M167.79 189.592L167.79 158.494M167.79 127.396L167.79 96.4039M167.79 65.3081L167.79 34.2102M149.366 344L149.366 312.902M149.365 281.912L149.365 250.814M149.365 219.717L149.365 188.725M149.365 157.625L149.365 126.527M149.365 95.4297L149.365 64.4376M149.365 33.3418L149.365 2.244M130.947 313.872L130.947 282.774M130.947 251.677L130.947 220.685M130.947 189.589L130.947 158.491M130.947 127.393L130.947 96.401M130.947 65.2978L130.947 34.2M112.528 344L112.528 312.902M112.528 281.912L112.528 250.814M112.528 219.717L112.528 188.725M112.528 157.629L112.528 126.531M112.528 95.4326L112.528 64.4406M112.528 33.3418L112.528 2.244M94.1011 313.872L94.1011 282.774M94.1018 251.677L94.1018 220.685M94.1018 189.581L94.1018 158.483M94.1018 127.393L94.1018 96.401M94.1018 65.2978L94.1018 34.2M75.6831 344L75.6831 312.902M75.6826 281.912L75.6826 250.814M75.6826 219.717L75.6826 188.725M75.6826 157.629L75.6826 126.531M75.6826 95.4326L75.6826 64.4406M75.6826 33.3418L75.6826 2.24399M57.2645 313.872L57.2645 282.774M57.2654 251.677L57.2654 220.685M57.2654 189.581L57.2654 158.483M57.2654 127.393L57.2654 96.401M57.2654 65.2978L57.2654 34.2M38.8384 344L38.8384 312.902M38.8394 281.912L38.8394 250.814M38.8394 219.717L38.8394 188.725M38.8394 157.629L38.8394 126.531M38.8394 95.4326L38.8394 64.4406M38.8394 33.3418L38.8394 2.24399M20.42 313.872L20.42 282.774M20.4202 251.677L20.4202 220.685M20.4202 189.581L20.4202 158.483M20.4202 127.393L20.4202 96.401M20.4202 65.2978L20.4202 34.2M2.00195 344L2.00196 312.902M2.00147 281.908L2.00147 250.81M2.00148 219.713L2.00148 188.721M2.00148 157.625L2.00148 126.527M2.00149 95.4297L2.00149 64.4376M2.00149 33.3379L2.00149 2.24008M373 344L373 312.902M373 281.908L373 250.81M373 219.713L373 188.721M373 157.625L373 126.527M373 95.4297L373 64.4377M373 33.3379L373 2.24011"
                stroke="white"
                stroke-width="2"
                stroke-miterlimit="10"
                style="transition-property: none"
              ></path>
            </g>
            <defs>
              <linearGradient
                class="cerosgradient"
                data-cerosgradient="true"
                id="CerosGradient_idaff03e40b"
                gradientUnits="userSpaceOnUse"
                x1="50%"
                y1="100%"
                x2="50%"
                y2="0%"
              >
                <stop
                  offset="0%"
                  stop-color="#d1d1d1"
                  style="transition-property: none"
                ></stop>
                <stop
                  offset="100%"
                  stop-color="#d1d1d1"
                  style="transition-property: none"
                ></stop>
              </linearGradient>
              <linearGradient
                id="paint0_linear_1294_5770662b4a1dce8032"
                x1="815.5"
                y1="601"
                x2="502"
                y2="601"
                gradientUnits="userSpaceOnUse"
              >
                <stop stop-color="#FF0000"></stop>
                <stop offset="1" stop-color="#C4C4C4" stop-opacity="0"></stop>
              </linearGradient>
            </defs>
          </svg>