<svg xmlns="http://www.w3.org/2000/svg" width="308" height="286" viewBox="0 0 390 363" fill="none" aria-hidden="true" style="width: 308px; height: 286px; display: block; transform: scale(1, 1); transition-property: none;">
<path d="M257.371 0.999994L388.893 181.5L257.371 362M129.441 0.999989L260.963 181.5L129.441 362M193.664 0.999991L325.186 181.5L193.664 362M65.2227 0.999986L196.744 181.5L65.2227 362M236.477 0.999993L367.998 181.5L236.477 362M108.035 0.999988L239.557 181.5L108.035 362M172.258 0.999991L303.779 181.5L172.258 362M43.8125 0.999985L175.334 181.5L43.8125 362M215.07 0.999992L346.592 181.5L215.07 362M86.6289 0.999987L218.15 181.5L86.6289 362M150.848 0.99999L282.369 181.5L150.848 362M22.4063 0.999984L153.928 181.5L22.4063 362M1.00003 0.999983L132.521 181.5L1.00001 362" stroke="url(#paint0_linear_1294_5770562b47df8e8029)" stroke-width="1.5" style="transition-property: none;"></path>
<defs><linearGradient class="cerosgradient" data-cerosgradient="true" id="CerosGradient_id4ff694aba" gradientUnits="userSpaceOnUse" x1="50%" y1="100%" x2="50%" y2="0%"><stop offset="0%" stop-color="#d1d1d1" style="transition-property: none;"></stop><stop offset="100%" stop-color="#d1d1d1" style="transition-property: none;"></stop></linearGradient>
<linearGradient id="paint0_linear_1294_5770562b47df8e8029" x1="388.893" y1="181.5" x2="-21.5762" y2="181.5" gradientUnits="userSpaceOnUse">
<stop stop-color="white"></stop>
<stop offset="1" stop-color="white" stop-opacity="0"></stop>
</linearGradient>
</defs>
</svg>