<svg xmlns="http://www.w3.org/2000/svg" width="308" height="308" viewBox="0 0 381 381" fill="none" role="img" aria-labelledby="titleid6e2f3f45d" style="width: 308px; height: 308px; display: block; transform: scale(1, 1); transition-property: none;">
<mask id="mask0_1294_5770262b47d1ce8023" style="mask-type:alpha" maskUnits="userSpaceOnUse" x="0" y="0" width="381" height="381">
<path d="M266.957 202.111L378.028 218.651M264.219 213.831L371.237 247.679M259.618 225.004L360.064 275.282M253.375 235.41L344.729 300.695M245.597 244.721L325.56 323.479M236.396 252.717L303.214 342.976M226.1 259.07L277.911 358.75M214.927 263.781L250.527 370.361M203.316 266.738L221.609 377.481M191.157 267.724L192.033 380M178.999 266.957L162.458 378.028M167.169 264.219L133.431 371.237M155.996 259.618L105.718 360.064M145.699 253.375L80.3052 344.729M136.388 245.597L57.5214 325.56M128.392 236.396L38.1333 303.214M121.93 226.1L22.3598 277.911M117.219 214.927L10.7489 250.527M114.371 203.316L3.51937 221.609M113.276 191.157L1 192.033M114.152 178.999L3.08122 162.458M116.891 167.169L9.76301 133.431M121.382 155.996L20.9358 105.718M127.625 145.699L36.3806 80.3052M135.512 136.388L55.4402 57.5214M144.713 128.392L77.8954 38.1333M155.01 121.93L103.089 22.3598M166.073 117.219L130.583 10.7489M177.794 114.371L159.501 3.51937M189.952 113.276L189.076 1M202.111 114.152L218.651 3.08122M213.831 116.891L247.679 9.76301M225.004 121.382L275.282 20.9358M235.41 127.625L300.695 36.3806M244.721 135.512L323.479 55.4402M252.717 144.713L342.976 77.8954M259.07 155.01L358.75 103.089M263.781 166.073L370.361 130.583M266.738 177.794L377.481 159.501M267.724 189.952L380 189.076" stroke="white" stroke-width="2" stroke-miterlimit="10" style="transition-property: none;"></path>
</mask>
<g mask="url(#mask0_1294_5770262b47d1ce8023)">
<circle cx="190.266" cy="190.444" r="210.831" transform="rotate(83.7767 190.266 190.444)" fill="url(#paint0_radial_1294_5770262b47d1ce8023)" style="transition-property: none;"></circle>
</g>
<defs><linearGradient class="cerosgradient" data-cerosgradient="true" id="CerosGradient_ideea182bb5" gradientUnits="userSpaceOnUse" x1="50%" y1="100%" x2="50%" y2="0%"><stop offset="0%" stop-color="#d1d1d1" style="transition-property: none;"></stop><stop offset="100%" stop-color="#d1d1d1" style="transition-property: none;"></stop></linearGradient><linearGradient></linearGradient>
<radialGradient id="paint0_radial_1294_5770262b47d1ce8023" cx="0" cy="0" r="1" gradientUnits="userSpaceOnUse" gradientTransform="translate(189.796 190.66) rotate(96.2232) scale(212 212)">
<stop offset="0.348958" stop-color="white" stop-opacity="0"></stop>
<stop offset="1" stop-color="white"></stop>
</radialGradient>
</defs>
<title id="titleid6e2f3f45d">A circle representing inclusion</title></svg>